<?xml version="1.0" standalone="no"?>
<!DOCTYPE svg PUBLIC "-//W3C//DTD SVG 20010904//EN"
 "http://www.w3.org/TR/2001/REC-SVG-20010904/DTD/svg10.dtd">
<svg version="1.0" xmlns="http://www.w3.org/2000/svg"
 width="256.000000pt" height="256.000000pt" viewBox="0 0 256.000000 256.000000"
 preserveAspectRatio="xMidYMid meet">

<g transform="translate(0.000000,256.000000) scale(0.100000,-0.100000)"
fill="#000000" stroke="none">
<path d="M1308 2193 c6 -2 9 -10 6 -15 -4 -7 -2 -8 4 -4 18 11 14 26 -5 25
-11 0 -13 -3 -5 -6z"/>
<path d="M1260 2163 c0 -6 -9 -15 -20 -18 -11 -3 -20 -13 -20 -21 0 -8 -5 -14
-11 -14 -5 0 -7 5 -3 12 5 8 -5 9 -36 4 -65 -10 -80 -22 -80 -61 0 -72 -80
-110 -204 -99 -69 6 -74 5 -73 -12 1 -11 -4 -19 -13 -19 -10 0 -14 8 -12 24 2
23 1 23 -50 17 -92 -12 -139 -55 -159 -147 -14 -61 39 -349 64 -349 36 1 37
15 16 116 -30 136 -31 233 -3 271 37 50 56 54 204 47 131 -5 136 -5 185 20 60
31 65 32 65 5 0 -11 5 -29 11 -40 9 -18 17 -19 82 -14 52 5 68 4 57 -4 -8 -6
-25 -11 -36 -11 -12 0 -27 -7 -34 -15 -12 -15 -5 -55 10 -55 5 0 11 -64 12
-142 l3 -143 95 0 95 0 0 40 0 40 -52 -3 c-48 -4 -53 -2 -53 17 0 17 6 21 36
21 35 0 35 1 32 38 -3 35 -5 37 -35 36 -26 -2 -33 2 -33 17 0 16 8 19 49 19
43 0 50 3 55 24 3 14 4 33 1 43 -3 10 14 -20 37 -67 40 -79 43 -91 43 -165 l0
-80 40 0 40 0 6 71 c7 73 18 101 71 182 20 31 28 38 24 22 -4 -14 -10 -70 -13
-126 l-6 -100 33 -37 c28 -33 37 -37 79 -37 39 0 52 5 75 29 34 35 54 100 62
202 7 78 7 78 -19 84 -55 14 -61 7 -73 -93 -14 -112 -18 -122 -44 -122 -17 0
-20 6 -20 43 0 23 6 70 14 105 14 68 11 74 -38 86 -15 4 -35 14 -43 21 -8 8
-30 15 -50 15 -32 0 -36 -3 -56 -50 -11 -27 -24 -50 -28 -50 -3 0 -15 24 -25
53 -16 44 -23 52 -47 55 -16 2 -40 -4 -54 -13 -20 -14 -30 -15 -53 -5 -16 7
-31 18 -34 27 -3 8 -10 12 -14 9 -5 -3 -9 2 -9 11 0 13 10 14 65 9 73 -8 88 0
97 48 l7 32 56 -29 c57 -29 57 -29 189 -22 148 7 180 -1 208 -55 21 -41 19
-138 -6 -260 -17 -85 -19 -104 -7 -111 28 -18 35 -6 57 89 29 122 37 237 22
284 -14 42 -66 94 -103 103 -23 6 -26 4 -21 -14 4 -15 1 -21 -11 -21 -12 0
-16 7 -14 23 3 19 -2 22 -27 22 -26 0 -30 -3 -27 -24 3 -16 -1 -22 -10 -19 -7
3 -12 13 -11 22 1 16 -7 17 -71 11 -127 -12 -206 25 -206 95 0 45 -13 55 -79
66 -28 4 -41 3 -41 -5 0 -6 -4 -11 -10 -11 -5 0 -7 7 -4 15 7 18 -22 21 -30 3
-3 -7 -4 -4 -3 7 1 14 -4 19 -23 20 -14 0 -28 5 -32 10 -5 6 -8 6 -8 -2z m0
-33 c0 -5 -4 -10 -10 -10 -5 0 -10 5 -10 10 0 6 5 10 10 10 6 0 10 -4 10 -10z
m115 -30 c28 -6 62 -12 78 -12 15 -1 27 -5 27 -10 0 -5 -4 -6 -10 -3 -5 3 -10
0 -10 -9 0 -8 6 -17 13 -19 7 -4 6 -6 -4 -6 -23 -1 -37 -89 -17 -103 10 -8 9
-9 -4 -5 -9 3 -19 0 -22 -8 -3 -9 -17 -12 -46 -8 -30 4 -45 2 -52 -8 -8 -11
-9 -10 -4 4 6 19 -16 22 -98 11 -33 -5 -46 -11 -46 -23 0 -12 -2 -13 -8 -3 -5
7 -15 11 -23 9 -8 -2 -11 -2 -8 0 13 8 -4 63 -20 63 -11 0 -12 3 -4 8 7 4 11
28 10 57 -2 45 0 50 21 53 13 2 22 10 22 20 0 13 2 14 9 4 10 -16 75 -7 92 14
9 11 14 11 32 -1 12 -8 45 -19 72 -25z m-295 -119 c0 -6 -4 -13 -10 -16 -5 -3
-10 1 -10 9 0 9 5 16 10 16 6 0 10 -4 10 -9z m440 1 c0 -13 -12 -22 -22 -16
-10 6 -1 24 13 24 5 0 9 -4 9 -8z m-780 -37 c0 -8 -9 -15 -20 -15 -11 0 -20 7
-20 15 0 8 9 15 20 15 11 0 20 -7 20 -15z m145 -3 c0 -18 -20 -15 -23 4 -3 10
1 15 10 12 7 -3 13 -10 13 -16z m143 7 c-2 -6 -8 -10 -13 -10 -5 0 -11 4 -13
10 -2 6 4 11 13 11 9 0 15 -5 13 -11z m547 1 c3 -5 -1 -10 -9 -10 -9 0 -16 5
-16 10 0 6 4 10 9 10 6 0 13 -4 16 -10z m140 -20 c-5 -8 -11 -8 -17 -2 -6 6
-7 16 -3 22 5 8 11 8 17 2 6 -6 7 -16 3 -22z m-755 5 c0 -8 -7 -15 -15 -15 -8
0 -15 7 -15 15 0 8 7 15 15 15 8 0 15 -7 15 -15z m682 0 c0 -5 -5 -11 -11 -13
-6 -2 -11 4 -11 13 0 9 5 15 11 13 6 -2 11 -8 11 -13z m-972 -19 c0 -8 -5 -18
-11 -22 -14 -8 -33 11 -25 25 10 16 36 13 36 -3z m1274 6 c8 -13 -11 -35 -23
-28 -16 10 -14 36 3 36 8 0 17 -4 20 -8z m-1318 -63 c8 -14 -11 -33 -25 -25
-11 7 -4 36 9 36 5 0 12 -5 16 -11z m1354 -15 c0 -8 -7 -14 -15 -14 -15 0 -21
21 -9 33 10 9 24 -2 24 -19z m-752 -6 c-2 -12 -8 -23 -14 -25 -17 -6 -27 29
-12 39 22 13 30 9 26 -14z m101 -12 c-11 -9 -69 -15 -64 -6 3 6 20 10 37 10
17 0 29 -2 27 -4z m141 -21 c0 -8 -4 -15 -10 -15 -5 0 -10 7 -10 15 0 8 5 15
10 15 6 0 10 -7 10 -15z m-87 -1 c-7 -3 -9 -12 -6 -20 3 -9 -1 -14 -12 -14
-11 0 -15 5 -12 14 4 10 -2 16 -16 19 -12 2 -4 5 18 5 22 0 35 -2 28 -4z m247
-4 c0 -5 -4 -10 -10 -10 -5 0 -10 5 -10 10 0 6 5 10 10 10 6 0 10 -4 10 -10z
m-1012 -27 c-4 -22 -22 -20 -26 1 -2 10 3 16 13 16 10 0 15 -7 13 -17z m642 7
c0 -5 -4 -10 -10 -10 -5 0 -10 5 -10 10 0 6 5 10 10 10 6 0 10 -4 10 -10z
m728 -7 c-4 -22 -22 -20 -26 1 -2 10 3 16 13 16 10 0 15 -7 13 -17z m-498 -13
c0 -5 -4 -10 -10 -10 -5 0 -10 5 -10 10 0 6 5 10 10 10 6 0 10 -4 10 -10z
m115 1 c3 -5 1 -12 -5 -16 -5 -3 -10 1 -10 9 0 18 6 21 15 7z m125 -1 c0 -5
-7 -10 -15 -10 -8 0 -15 5 -15 10 0 6 7 10 15 10 8 0 15 -4 15 -10z m131 -23
c-13 -13 -26 -3 -16 12 3 6 11 8 17 5 6 -4 6 -10 -1 -17z m-601 -17 c0 -5 -4
-10 -10 -10 -5 0 -10 5 -10 10 0 6 5 10 10 10 6 0 10 -4 10 -10z m-635 -9 c7
-12 -12 -24 -25 -16 -11 7 -4 25 10 25 5 0 11 -4 15 -9z m1085 -1 c0 -5 -5
-10 -11 -10 -5 0 -7 5 -4 10 3 6 8 10 11 10 2 0 4 -4 4 -10z m270 -6 c0 -9 -5
-14 -12 -12 -18 6 -21 28 -4 28 9 0 16 -7 16 -16z m-120 -14 c0 -5 -4 -10 -10
-10 -5 0 -10 5 -10 10 0 6 5 10 10 10 6 0 10 -4 10 -10z m-320 -8 c0 -13 -12
-22 -22 -16 -10 6 -1 24 13 24 5 0 9 -4 9 -8z m-276 -23 c-3 -5 -10 -7 -15 -3
-5 3 -7 10 -3 15 3 5 10 7 15 3 5 -3 7 -10 3 -15z m446 3 c0 -13 -12 -22 -22
-16 -10 6 -1 24 13 24 5 0 9 -4 9 -8z m-1080 -17 c0 -8 -4 -15 -10 -15 -5 0
-10 7 -10 15 0 8 5 15 10 15 6 0 10 -7 10 -15z m1340 0 c0 -8 -4 -15 -9 -15
-13 0 -22 16 -14 24 11 11 23 6 23 -9z m-112 -6 c-2 -6 -8 -10 -13 -10 -5 0
-11 4 -13 10 -2 6 4 11 13 11 9 0 15 -5 13 -11z m-158 -39 c0 -5 -4 -10 -10
-10 -5 0 -10 5 -10 10 0 6 5 10 10 10 6 0 10 -4 10 -10z m-1052 -18 c2 -7 -3
-12 -12 -12 -9 0 -16 7 -16 16 0 17 22 14 28 -4z m1304 3 c0 -5 -5 -11 -11
-13 -6 -2 -11 4 -11 13 0 9 5 15 11 13 6 -2 11 -8 11 -13z m-112 -5 c0 -5 -4
-10 -10 -10 -5 0 -10 5 -10 10 0 6 5 10 10 10 6 0 10 -4 10 -10z m-575 -19 c3
-5 1 -12 -5 -16 -5 -3 -10 1 -10 9 0 18 6 21 15 7z m115 -11 c0 -5 -4 -10 -10
-10 -5 0 -10 5 -10 10 0 6 5 10 10 10 6 0 10 -4 10 -10z m154 -21 c-3 -5 -10
-7 -15 -3 -5 3 -7 10 -3 15 3 5 10 7 15 3 5 -3 7 -10 3 -15z m-879 2 c3 -5 1
-12 -5 -16 -5 -3 -10 1 -10 9 0 18 6 21 15 7z m1285 -6 c0 -8 -4 -15 -10 -15
-5 0 -10 7 -10 15 0 8 5 15 10 15 6 0 10 -7 10 -15z m-180 -5 c0 -5 -4 -10
-10 -10 -5 0 -10 5 -10 10 0 6 5 10 10 10 6 0 10 -4 10 -10z"/>
<path d="M1291 2080 c-18 -11 -9 -54 12 -58 9 -2 17 1 17 7 0 6 -7 11 -15 11
-23 0 -18 20 7 29 16 6 18 9 6 13 -8 4 -20 3 -27 -2z"/>
<path d="M1198 2075 c-7 -7 3 -55 11 -55 4 0 6 14 3 30 -4 32 -5 33 -14 25z"/>
<path d="M1220 2063 c0 -22 20 -55 20 -34 0 10 3 11 13 2 11 -9 14 -5 15 19 1
25 -3 30 -24 30 -16 0 -24 -6 -24 -17z"/>
<path d="M1337 2063 c-5 -13 -5 -27 -2 -33 11 -18 43 -11 49 13 8 31 7 37 -4
37 -5 0 -10 -11 -10 -25 0 -34 -18 -32 -22 3 -3 26 -4 26 -11 5z"/>
<path d="M1144 2055 c-4 -8 -4 -22 0 -30 6 -17 46 -21 46 -4 0 5 -5 7 -10 4
-6 -3 -13 1 -17 10 -3 10 0 21 8 26 11 7 10 9 -4 9 -10 0 -20 -7 -23 -15z"/>
<path d="M1400 2057 c0 -7 6 -19 13 -26 10 -11 9 -13 -6 -8 -11 4 -16 3 -12
-3 9 -15 35 -12 35 4 0 8 -5 18 -12 22 -8 5 -6 10 8 15 17 7 17 8 -3 8 -13 1
-23 -5 -23 -12z"/>
<path d="M1276 1985 c-8 -30 0 -47 13 -26 6 10 10 9 15 -4 3 -9 10 -13 16 -10
13 8 13 55 0 55 -5 0 -10 -5 -10 -12 0 -6 -6 -4 -14 7 -12 17 -13 16 -20 -10z"/>
<path d="M1189 1995 c-9 -8 2 -55 12 -55 5 0 9 6 9 13 0 8 3 7 10 -3 5 -8 12
-11 16 -7 4 4 3 12 -3 18 -6 6 -9 19 -5 28 5 13 3 14 -10 3 -11 -9 -17 -9 -20
-2 -2 6 -6 9 -9 5z"/>
<path d="M1252 1970 c0 -19 2 -27 5 -17 2 9 2 25 0 35 -3 9 -5 1 -5 -18z"/>
<path d="M1347 1993 c-4 -3 -7 -17 -7 -30 0 -18 5 -23 25 -23 16 0 25 6 25 15
0 8 -4 15 -10 15 -5 0 -10 -5 -10 -11 0 -5 -4 -7 -10 -4 -17 10 -11 25 10 25
11 0 20 5 20 10 0 11 -33 14 -43 3z"/>
<path d="M1050 2147 c0 -19 10 -27 25 -20 17 6 8 33 -11 33 -8 0 -14 -6 -14
-13z"/>
<path d="M1490 2146 c0 -17 27 -29 35 -16 4 6 3 15 0 20 -9 15 -35 12 -35 -4z"/>
<path d="M1626 2135 c-11 -17 -26 -25 -46 -25 -38 0 -52 -25 -34 -65 10 -24
13 -26 14 -9 0 11 6 28 13 38 12 16 17 17 36 6 19 -9 22 -9 16 0 -5 8 -3 11 6
8 9 -3 14 -20 14 -46 0 -46 2 -48 29 -29 25 19 17 48 -21 72 -33 20 -45 42
-19 32 16 -6 43 19 32 30 -3 3 -6 1 -6 -5 0 -7 -5 -12 -11 -12 -6 0 -9 7 -5
15 8 23 0 18 -18 -10z"/>
<path d="M938 2143 c7 -3 16 -2 19 1 4 3 -2 6 -13 5 -11 0 -14 -3 -6 -6z"/>
<path d="M937 2109 c4 -12 10 -16 17 -12 7 5 3 0 -9 -9 -62 -53 -65 -69 -14
-87 28 -10 29 -10 14 13 -19 29 -10 54 21 62 29 7 54 -11 54 -40 1 -21 1 -21
15 -2 28 38 15 65 -29 57 -5 -1 -17 6 -28 16 -27 24 -47 25 -41 2z"/>
<path d="M746 2105 c-3 -9 -6 -22 -5 -28 0 -7 5 -1 10 12 5 13 8 26 5 28 -2 2
-6 -3 -10 -12z"/>
<path d="M775 2065 c-19 -16 -19 -16 2 -6 30 15 31 14 25 -14 -4 -21 -1 -25
21 -25 14 0 28 -5 30 -10 3 -6 4 -5 3 2 -1 7 -12 14 -24 16 -15 2 -21 10 -19
24 3 27 -14 32 -38 13z"/>
<path d="M1590 2040 c0 -6 -4 -8 -10 -5 -11 7 -13 -6 -4 -29 8 -21 54 -21 54
-1 0 8 -4 15 -10 15 -5 0 -9 5 -7 11 1 6 -4 14 -10 16 -7 3 -13 0 -13 -7z"/>
<path d="M970 2030 c0 -5 5 -10 10 -10 6 0 10 5 10 10 0 6 -4 10 -10 10 -5 0
-10 -4 -10 -10z"/>
<path d="M1066 1874 c-4 -10 -1 -14 6 -12 15 5 23 28 10 28 -5 0 -13 -7 -16
-16z"/>
<path d="M796 1861 c-4 -5 -2 -12 3 -15 5 -4 12 -2 15 3 4 5 2 12 -3 15 -5 4
-12 2 -15 -3z"/>
<path d="M1795 1860 c-4 -6 -3 -16 3 -22 6 -6 12 -6 17 2 4 6 3 16 -3 22 -6 6
-12 6 -17 -2z"/>
<path d="M885 1843 c-34 -9 -37 -19 -26 -93 7 -40 10 -74 8 -76 -2 -2 -25 28
-52 67 -48 70 -49 71 -84 64 -20 -4 -40 -10 -44 -14 -5 -5 1 -77 13 -162 30
-220 25 -203 67 -196 54 9 58 18 45 89 -6 34 -10 64 -7 66 2 2 23 -23 47 -57
36 -51 48 -60 73 -61 56 0 57 4 45 146 -19 211 -22 229 -45 231 -11 0 -29 -1
-40 -4z m22 -19 c-3 -3 -12 -4 -19 -1 -8 3 -5 6 6 6 11 1 17 -2 13 -5z m33
-14 c0 -11 -2 -20 -4 -20 -2 0 -6 9 -9 20 -3 11 -1 20 4 20 5 0 9 -9 9 -20z
m-22 -12 c-6 -18 -28 -21 -28 -4 0 9 7 16 16 16 9 0 14 -5 12 -12z m-193 -18
c-27 -12 -43 -12 -25 0 8 5 22 9 30 9 10 0 8 -3 -5 -9z m55 -10 c6 -11 9 -20
7 -20 -2 0 -12 9 -22 20 -10 11 -13 20 -7 20 6 0 16 -9 22 -20z m-30 -21 c0
-5 -7 -9 -15 -9 -15 0 -20 12 -9 23 8 8 24 -1 24 -14z m173 -5 c10 -11 -4 -33
-18 -28 -8 3 -11 12 -8 20 5 15 16 18 26 8z m-133 -44 c0 -5 -4 -10 -10 -10
-5 0 -10 5 -10 10 0 6 5 10 10 10 6 0 10 -4 10 -10z m135 -40 c3 -5 1 -10 -4
-10 -6 0 -11 5 -11 10 0 6 2 10 4 10 3 0 8 -4 11 -10z m-85 -20 c0 -5 -4 -10
-10 -10 -5 0 -10 5 -10 10 0 6 5 10 10 10 6 0 10 -4 10 -10z m-80 -26 c0 -14
-12 -19 -23 -8 -9 9 4 35 14 28 5 -3 9 -12 9 -20z m175 -13 c3 -5 1 -12 -5
-16 -5 -3 -10 1 -10 9 0 18 6 21 15 7z m-165 -51 c0 -5 -4 -10 -10 -10 -5 0
-10 5 -10 10 0 6 5 10 10 10 6 0 10 -4 10 -10z m170 -25 c0 -8 -4 -15 -10 -15
-5 0 -10 7 -10 15 0 8 5 15 10 15 6 0 10 -7 10 -15z m-160 -35 c0 -5 -4 -10
-10 -10 -5 0 -10 5 -10 10 0 6 5 10 10 10 6 0 10 -4 10 -10z"/>
<path d="M1070 1813 c-19 -2 -46 -6 -59 -9 l-24 -5 7 -142 c5 -98 11 -146 20
-156 11 -10 31 -11 97 -5 l84 9 0 40 0 40 -52 -3 c-48 -2 -53 0 -53 18 0 16 7
20 30 20 35 0 45 17 36 56 -6 24 -10 25 -41 20 -30 -6 -35 -4 -35 13 0 17 8
20 48 23 l47 3 0 40 c0 39 -1 40 -35 41 -19 1 -51 0 -70 -3z m28 -20 c-10 -2
-28 -2 -40 0 -13 2 -5 4 17 4 22 1 32 -1 23 -4z m62 -13 c0 -5 -7 -10 -15 -10
-8 0 -15 5 -15 10 0 6 7 10 15 10 8 0 15 -4 15 -10z m-120 -15 c0 -8 -4 -15
-10 -15 -5 0 -10 7 -10 15 0 8 5 15 10 15 6 0 10 -7 10 -15z m60 11 c0 -3 -4
-8 -10 -11 -5 -3 -10 -1 -10 4 0 6 5 11 10 11 6 0 10 -2 10 -4z m-60 -66 c0
-5 -5 -10 -11 -10 -5 0 -7 5 -4 10 3 6 8 10 11 10 2 0 4 -4 4 -10z m10 -60 c0
-5 -4 -10 -10 -10 -5 0 -10 5 -10 10 0 6 5 10 10 10 6 0 10 -4 10 -10z m120
-100 c0 -5 -4 -10 -10 -10 -5 0 -10 5 -10 10 0 6 5 10 10 10 6 0 10 -4 10 -10z
m-110 -10 c0 -5 -4 -10 -10 -10 -5 0 -10 5 -10 10 0 6 5 10 10 10 6 0 10 -4
10 -10z"/>
<path d="M515 1780 c-10 -11 -16 -22 -13 -25 3 -3 13 4 23 15 10 11 16 22 13
25 -3 3 -13 -4 -23 -15z"/>
<path d="M2046 1774 c-22 -21 -20 -41 4 -49 25 -8 26 -22 3 -28 -14 -4 -12 -5
5 -6 13 -1 22 5 22 13 0 7 -10 20 -22 29 -23 14 -23 15 -4 36 22 24 15 29 -8
5z"/>
<path d="M505 1730 c9 -15 45 -32 45 -22 0 5 -12 14 -26 20 -14 7 -23 8 -19 2z"/>
<path d="M2030 1672 c0 -6 6 -13 13 -16 8 -3 6 -10 -8 -22 -18 -15 -18 -16 -2
-10 10 3 21 6 23 6 10 0 2 29 -11 40 -9 8 -15 8 -15 2z"/>
<path d="M1425 1641 c-3 -5 -1 -12 5 -16 5 -3 10 1 10 9 0 18 -6 21 -15 7z"/>
<path d="M566 1492 c-3 -6 -1 -14 5 -17 15 -10 25 3 12 16 -7 7 -13 7 -17 1z"/>
<path d="M1990 1480 c0 -5 5 -10 10 -10 6 0 10 5 10 10 0 6 -4 10 -10 10 -5 0
-10 -4 -10 -10z"/>
<path d="M1274 1454 c-18 -14 -18 -15 4 -4 12 6 22 13 22 15 0 8 -5 6 -26 -11z"/>
<path d="M920 1422 c-71 -26 -75 -29 -73 -56 3 -41 16 -50 52 -38 l31 11 15
-51 c19 -64 19 -72 0 -88 -20 -17 -28 -7 -34 41 -2 12 -38 17 -55 7 -26 -14
-21 -80 8 -107 24 -23 30 -61 9 -68 -6 -2 -13 6 -15 18 -4 32 -28 37 -28 5 0
-49 -34 -38 -42 14 -2 17 -10 26 -26 28 -25 4 -41 -23 -23 -41 13 -13 15 -57
1 -57 -5 0 -13 7 -18 17 -6 10 -16 14 -27 9 -14 -5 -16 -9 -7 -18 17 -17 15
-38 -3 -38 -8 0 -15 6 -15 14 0 16 -19 25 -37 19 -21 -7 -15 -37 9 -48 34 -15
56 -64 57 -123 1 -46 4 -54 27 -64 45 -21 88 30 49 58 -18 13 -13 34 9 34 18
0 29 -96 15 -122 -8 -14 -8 -23 0 -31 6 -6 11 -37 11 -69 0 -43 -4 -59 -17
-66 -10 -6 -14 -16 -10 -26 5 -13 18 -15 70 -13 35 2 69 7 75 11 16 10 15 31
-3 46 -10 8 -15 30 -15 61 0 83 24 61 93 -83 49 -102 78 -131 143 -149 43 -13
92 2 124 36 32 34 32 101 0 127 -41 33 -95 13 -88 -33 2 -19 9 -24 31 -24 34
1 30 -19 -6 -23 -44 -5 -74 25 -127 128 -27 54 -62 107 -76 118 l-27 19 41 61
c23 33 51 63 62 67 54 17 -1 52 -72 45 -51 -5 -53 -6 -50 -34 2 -18 -7 -43
-25 -70 l-28 -41 -3 44 c-2 30 1 47 11 52 10 6 12 22 6 70 -8 65 7 109 36 109
8 0 27 12 44 26 47 39 50 88 15 210 -4 16 0 23 15 27 23 6 27 27 11 58 -14 25
-29 23 -120 -9z m81 -25 c-8 -8 -11 -5 -11 9 0 27 14 41 18 19 2 -9 -1 -22 -7
-28z m-29 -2 c-5 -29 -19 -33 -25 -7 -3 14 -6 13 -15 -8 -7 -18 -11 -20 -11
-8 -1 14 -7 16 -33 11 -44 -8 -34 1 22 20 62 22 68 21 62 -8z m5 -67 c2 -18 0
-20 -7 -8 -12 18 -13 30 -2 30 4 0 9 -10 9 -22z m-97 -98 c0 -5 -5 -10 -11
-10 -5 0 -7 5 -4 10 3 6 8 10 11 10 2 0 4 -4 4 -10z m-100 -115 c0 -8 -6 -15
-14 -15 -17 0 -28 14 -19 24 12 12 33 6 33 -9z m140 -5 c0 -5 -4 -10 -10 -10
-5 0 -10 5 -10 10 0 6 5 10 10 10 6 0 10 -4 10 -10z m-110 -55 c29 -31 37 -31
67 -3 l24 22 -4 -35 c-5 -49 -9 -53 -78 -74 -47 -14 -64 -16 -67 -7 -2 7 -8
12 -14 12 -6 0 -6 -6 2 -15 10 -13 9 -15 -9 -15 -11 0 -21 5 -21 11 0 6 -10
19 -22 30 l-23 19 40 -2 c40 -3 40 -2 49 40 11 48 23 52 56 17z m45 5 c3 -5
-1 -10 -10 -10 -9 0 -13 5 -10 10 3 6 8 10 10 10 2 0 7 -4 10 -10z m-125 -40
c0 -5 -4 -10 -10 -10 -5 0 -10 5 -10 10 0 6 5 10 10 10 6 0 10 -4 10 -10z
m160 -55 c-24 -14 -92 -36 -152 -49 -16 -4 -28 -2 -28 4 0 5 8 10 18 11 9 0
49 11 87 24 81 27 111 31 75 10z m157 -6 c-16 -4 -38 -4 -50 0 -15 6 -6 8 29
8 41 0 44 -1 21 -8z m-188 -139 c1 -20 -1 -22 -9 -10 -5 8 -9 29 -9 45 0 26 2
27 9 10 5 -11 9 -31 9 -45z m107 33 c-8 -16 -26 -39 -41 -53 -23 -21 -22 -16
10 28 40 57 53 67 31 25z m-96 -84 c0 -5 -7 -9 -15 -9 -15 0 -20 12 -9 23 8 8
24 -1 24 -14z m156 -81 c14 -27 24 -51 22 -53 -2 -2 -17 23 -34 55 -17 33 -27
57 -22 54 4 -3 20 -28 34 -56z m-169 20 c-3 -7 -5 -2 -5 12 0 14 2 19 5 13 2
-7 2 -19 0 -25z m223 -128 c6 -11 8 -20 6 -20 -3 0 -10 9 -16 20 -6 11 -8 20
-6 20 3 0 10 -9 16 -20z"/>
<path d="M780 1031 c0 -6 5 -13 10 -16 6 -3 10 -11 10 -17 0 -7 -6 -6 -15 2
-8 7 -15 8 -15 2 0 -15 28 -35 40 -27 17 10 11 39 -10 53 -11 7 -20 8 -20 3z"/>
<path d="M856 1005 c-3 -8 -1 -15 4 -15 6 0 10 7 10 15 0 8 -2 15 -4 15 -2 0
-6 -7 -10 -15z"/>
<path d="M1293 1440 c-13 -5 -23 -14 -23 -20 0 -8 28 5 59 27 9 6 -15 1 -36
-7z"/>
<path d="M1562 1425 c0 -16 2 -22 5 -12 2 9 2 23 0 30 -3 6 -5 -1 -5 -18z"/>
<path d="M1867 1443 c-3 -5 -1 -15 5 -23 8 -12 9 -12 4 3 -7 21 12 23 20 2 4
-8 3 -22 0 -31 -5 -14 -7 -14 -22 0 -20 20 -34 20 -34 1 0 -8 5 -15 11 -15 5
0 7 -5 3 -12 -5 -8 -2 -9 12 -3 10 4 33 10 51 13 36 5 58 25 48 42 -5 8 -13 6
-26 -6 -11 -9 -20 -15 -22 -13 -1 2 -7 13 -13 23 -12 23 -30 31 -37 19z m88
-42 c-3 -6 -11 -11 -17 -11 -6 0 -6 6 2 15 14 17 26 13 15 -4z"/>
<path d="M620 1424 c0 -13 40 -47 48 -40 3 3 2 6 -3 6 -4 0 -2 7 5 15 16 19 5
32 -13 17 -10 -9 -17 -8 -25 0 -7 7 -12 8 -12 2z"/>
<path d="M1436 1378 l-23 -51 -24 44 c-17 31 -31 45 -49 47 -49 5 -55 -8 -59
-138 -3 -118 -3 -120 20 -129 13 -4 33 -5 44 -1 16 6 19 15 17 51 -2 41 -1 43
13 25 8 -11 15 -23 15 -28 0 -4 12 -8 26 -8 19 0 28 7 37 30 16 42 24 37 29
-17 6 -57 -1 -67 -44 -67 -26 -1 -34 -6 -36 -22 -3 -23 31 -43 83 -47 28 -2
30 1 42 47 6 26 19 53 27 60 13 10 13 23 0 121 -9 61 -20 116 -26 123 -6 6
-24 12 -40 12 -26 0 -32 -6 -52 -52z m67 22 c-12 -5 -29 -22 -37 -37 -17 -32
-21 -18 -6 21 7 20 16 26 37 25 26 0 27 -1 6 -9z m-164 -13 c-8 -7 -20 -28
-26 -47 -9 -30 -11 -31 -12 -10 -1 45 10 70 33 70 18 -1 19 -2 5 -13z m181
-242 c0 -8 -4 -15 -10 -15 -5 0 -10 7 -10 15 0 8 5 15 10 15 6 0 10 -7 10 -15z
m-20 -42 c-24 -17 -35 -12 -27 11 4 9 14 12 27 9 l21 -6 -21 -14z"/>
<path d="M1605 1420 c-3 -5 -11 -67 -16 -136 -10 -121 -10 -127 10 -146 19
-17 22 -23 21 -43 -1 -12 31 -65 39 -65 16 0 108 49 120 64 21 25 9 61 -21 64
-22 3 -30 -3 -43 -29 -16 -31 -17 -31 -34 -13 -13 14 -17 31 -13 66 3 40 7 47
30 53 44 11 70 32 82 70 24 72 -26 125 -118 125 -28 0 -54 -4 -57 -10z m58
-16 c-21 -11 -33 -24 -34 -38 -1 -15 -3 -12 -8 9 -8 35 2 45 44 45 l30 0 -32
-16z m36 -53 c17 -11 7 -41 -14 -41 -9 0 -15 9 -15 25 0 27 6 30 29 16z m11
-56 c-7 -8 -20 -15 -29 -15 -11 0 -8 5 9 14 33 19 35 19 20 1z m-56 -171 c4
-9 4 -19 1 -22 -6 -6 -35 18 -35 29 0 16 28 10 34 -7z m52 -30 c18 7 18 6 2
-10 -11 -12 -24 -15 -43 -10 -26 7 -26 8 -9 21 13 9 21 10 25 3 4 -6 15 -8 25
-4z"/>
<path d="M1792 1398 c7 -15 15 -23 17 -17 2 6 -4 18 -13 27 -15 15 -15 15 -4
-10z"/>
<path d="M1067 1384 c-13 -13 -8 -154 7 -183 29 -55 99 -66 147 -23 27 24 32
36 36 94 8 97 1 118 -42 118 l-35 0 0 -62 c0 -114 -37 -121 -42 -8 -3 64 -3
65 -33 68 -17 2 -34 0 -38 -4z m33 -21 c0 -10 -5 -25 -10 -33 -7 -11 -10 -7
-10 18 0 17 5 32 10 32 6 0 10 -8 10 -17z m112 -20 c-5 -25 -6 -25 -13 -8 -11
29 -10 35 5 35 9 0 12 -8 8 -27z"/>
<path d="M766 1371 c-10 -15 5 -41 23 -41 9 0 23 -6 30 -12 8 -9 8 -2 -3 22
-14 35 -39 50 -50 31z m29 -11 c3 -5 -1 -10 -10 -10 -9 0 -13 5 -10 10 3 6 8
10 10 10 2 0 7 -4 10 -10z"/>
<path d="M688 1353 c7 -3 16 -2 19 1 4 3 -2 6 -13 5 -11 0 -14 -3 -6 -6z"/>
<path d="M731 1339 c8 -17 8 -23 -2 -29 -14 -10 -39 -2 -39 12 0 5 -5 6 -11 2
-8 -4 -4 -13 12 -25 17 -13 27 -15 36 -7 7 6 30 8 50 4 l38 -5 -34 15 c-18 8
-35 24 -38 34 -3 11 -9 20 -15 20 -5 0 -4 -10 3 -21z"/>
<path d="M1980 1320 c0 -5 4 -10 9 -10 6 0 13 5 16 10 3 6 -1 10 -9 10 -9 0
-16 -4 -16 -10z"/>
<path d="M603 1294 c-8 -17 -6 -24 9 -33 26 -16 56 4 50 34 -5 29 -45 28 -59
-1z"/>
<path d="M1860 1305 c0 -8 -18 -24 -40 -35 -22 -11 -40 -23 -40 -25 0 -3 13 1
29 10 33 16 81 6 81 -17 1 -8 6 -7 14 5 7 9 19 17 26 17 7 0 10 7 6 16 -3 9
-6 22 -6 30 0 16 -26 19 -35 4 -3 -5 0 -7 8 -4 22 8 28 -31 7 -44 -23 -14 -45
8 -37 38 3 11 1 20 -4 20 -5 0 -9 -7 -9 -15z"/>
<path d="M726 1226 c-7 -26 15 -47 35 -32 9 6 14 16 12 22 -2 6 7 16 19 22 20
9 18 10 -19 9 -32 -2 -43 -7 -47 -21z m34 -4 c0 -13 -12 -22 -22 -16 -10 6 -1
24 13 24 5 0 9 -4 9 -8z"/>
<path d="M1790 1230 c-18 -12 -2 -12 25 0 13 6 15 9 5 9 -8 0 -22 -4 -30 -9z"/>
<path d="M1805 1191 c17 -3 30 -11 29 -16 -1 -6 6 -15 14 -21 20 -15 45 7 36
30 -5 12 -19 16 -58 15 -41 -1 -45 -3 -21 -8z m67 -16 c0 -5 -5 -11 -11 -13
-6 -2 -11 4 -11 13 0 9 5 15 11 13 6 -2 11 -8 11 -13z"/>
<path d="M1950 1183 c0 -13 29 -38 35 -31 3 3 -4 13 -15 23 -11 10 -20 13 -20
8z"/>
<path d="M650 1145 c-8 -9 -8 -15 -2 -15 12 0 26 19 19 26 -2 2 -10 -2 -17
-11z"/>
<path d="M1027 1134 c-10 -13 -14 -24 -9 -24 13 0 35 27 30 39 -1 5 -11 -2
-21 -15z"/>
<path d="M1205 1145 c-25 -12 -26 -14 -9 -15 12 0 27 7 34 15 15 18 14 18 -25
0z"/>
<path d="M1220 1120 c-9 -6 -10 -10 -3 -10 6 0 15 5 18 10 8 12 4 12 -15 0z"/>
<path d="M1370 1088 c0 -9 5 -20 11 -23 17 -11 18 -2 3 19 -12 17 -14 17 -14
4z"/>
<path d="M1290 1075 c-8 -9 -8 -15 -2 -15 12 0 26 19 19 26 -2 2 -10 -2 -17
-11z"/>
<path d="M1158 1059 c-10 -5 -23 -19 -29 -30 -14 -28 13 -69 46 -69 52 0 75
65 33 94 -26 19 -27 19 -50 5z m22 -24 c0 -8 -4 -15 -9 -15 -13 0 -22 16 -14
24 11 11 23 6 23 -9z"/>
<path d="M1350 1066 c0 -2 8 -10 18 -17 15 -13 16 -12 3 4 -13 16 -21 21 -21
13z"/>
<path d="M1810 1053 c0 -5 11 -15 24 -21 41 -19 59 -56 54 -112 -6 -58 4 -63
33 -17 39 63 2 141 -74 154 -21 3 -37 2 -37 -4z m75 -23 c3 -5 1 -10 -4 -10
-6 0 -11 5 -11 10 0 6 2 10 4 10 3 0 8 -4 11 -10z"/>
<path d="M1433 1004 c-3 -7 2 -21 11 -29 11 -12 16 -35 16 -78 l0 -61 -43 69
c-41 68 -44 70 -85 72 -53 2 -81 -20 -58 -46 17 -19 21 -208 4 -228 -21 -26
-1 -43 52 -43 53 0 75 19 51 43 -6 6 -11 31 -11 57 l0 45 36 -60 c53 -88 62
-96 103 -93 l36 3 -3 152 c-2 128 0 154 14 168 29 29 10 43 -56 43 -43 0 -63
-4 -67 -14z m114 0 c-3 -3 -12 -4 -19 -1 -8 3 -5 6 6 6 11 1 17 -2 13 -5z
m-183 -42 c2 -4 -10 -8 -27 -9 -30 -1 -30 -1 -7 7 14 4 26 8 27 9 1 1 4 -3 7
-7z m-33 -159 c-8 -14 -10 -7 -11 33 0 28 3 54 8 58 11 12 14 -72 3 -91z m69
43 c0 -12 -14 5 -31 39 -8 16 -6 15 10 -4 12 -13 21 -28 21 -35z m102 -39 c-9
-18 -11 -11 -10 38 0 59 0 60 10 22 7 -27 7 -45 0 -60z m-72 13 c0 -5 -4 -10
-9 -10 -6 0 -13 5 -16 10 -3 6 1 10 9 10 9 0 16 -4 16 -10z m19 -50 c11 -24
11 -24 -3 -6 -9 11 -16 24 -16 30 0 12 5 7 19 -24z"/>
<path d="M1672 1003 c-19 -9 -40 -26 -48 -39 -17 -25 -56 -124 -55 -139 1 -29
22 -109 36 -135 30 -58 114 -87 166 -59 15 7 24 7 34 -1 8 -6 22 -10 31 -8 15
3 17 14 15 76 -2 67 -1 72 18 72 16 0 21 6 21 24 0 33 -11 38 -83 41 -76 3
-97 -7 -97 -45 0 -33 15 -47 34 -31 15 13 26 5 26 -19 0 -24 -25 -43 -48 -35
-62 19 -50 217 14 242 9 3 20 1 27 -6 8 -8 6 -15 -8 -25 -16 -12 -17 -16 -6
-30 16 -19 62 -21 79 -4 13 13 16 66 6 93 -16 42 -103 57 -162 28z m113 -7
c18 -13 18 -14 -8 -9 -30 6 -102 -5 -93 -14 3 -4 -1 -14 -9 -23 -8 -9 -22 -34
-30 -56 -13 -33 -15 -35 -11 -9 3 17 8 39 12 49 5 14 4 17 -5 11 -10 -6 -11
-3 -2 12 23 43 109 66 146 39z m-145 -161 c0 -8 -4 -15 -9 -15 -13 0 -22 16
-14 24 11 11 23 6 23 -9z m144 -31 c9 -4 21 -16 27 -28 9 -19 9 -19 -4 -4 -8
10 -25 22 -38 27 -13 5 -19 10 -12 10 6 1 19 -2 27 -5z m-144 -48 c0 -26 -6
-18 -14 19 -5 22 -4 26 4 15 5 -8 10 -24 10 -34z m167 -38 c-3 -8 -6 -5 -6 6
-1 11 2 17 5 13 3 -3 4 -12 1 -19z"/>
<path d="M1196 943 c-3 -4 -24 -6 -45 -5 -42 3 -61 -17 -36 -38 19 -16 19
-190 -1 -204 -15 -12 -7 -33 16 -36 8 -1 37 -2 63 -1 53 1 70 20 42 47 -12 13
-15 27 -11 53 8 46 8 50 0 87 -4 21 -1 36 10 47 21 21 20 34 -3 47 -23 12 -26
12 -35 3z m-19 -105 c-3 -7 -5 -2 -5 12 0 14 2 19 5 13 2 -7 2 -19 0 -25z m13
-26 c0 -13 -12 -22 -22 -16 -10 6 -1 24 13 24 5 0 9 -4 9 -8z m-13 -64 c-3 -7
-5 -2 -5 12 0 14 2 19 5 13 2 -7 2 -19 0 -25z"/>
<path d="M550 885 c0 -8 2 -15 4 -15 2 0 6 7 10 15 3 8 1 15 -4 15 -6 0 -10
-7 -10 -15z"/>
<path d="M1995 881 c-7 -12 12 -24 25 -16 11 7 4 25 -10 25 -5 0 -11 -4 -15
-9z"/>
<path d="M640 800 c-12 -8 -12 -10 3 -16 21 -8 35 2 21 16 -5 5 -15 6 -24 0z"/>
<path d="M1890 671 c0 -56 -12 -77 -60 -101 -55 -28 -111 -25 -226 11 -55 17
-127 33 -161 36 -59 5 -63 4 -92 -25 -17 -17 -31 -39 -31 -49 0 -44 56 -76 84
-48 32 33 4 73 -30 44 -14 -11 -15 -10 -12 11 3 22 9 25 48 28 36 2 73 -8 165
-44 150 -59 219 -64 285 -20 67 44 90 140 45 185 -13 14 -15 11 -15 -28z m-30
-121 c-26 -21 -87 -37 -97 -26 -4 3 5 6 18 6 13 0 40 9 59 19 45 25 51 26 20
1z"/>
<path d="M720 667 c-13 -7 -31 -29 -38 -49 -13 -34 -13 -41 5 -75 28 -53 72
-76 142 -76 56 1 134 24 160 49 7 7 11 20 8 29 -5 12 -11 14 -26 6 -47 -26
-134 -41 -172 -31 -69 19 -101 88 -59 130 32 32 24 39 -20 17z m-10 -107 c0
-5 -2 -10 -4 -10 -3 0 -8 5 -11 10 -3 6 -1 10 4 10 6 0 11 -4 11 -10z m40 -40
c0 -5 -4 -10 -10 -10 -5 0 -10 5 -10 10 0 6 5 10 10 10 6 0 10 -4 10 -10z
m220 0 c0 -5 -2 -10 -4 -10 -3 0 -8 5 -11 10 -3 6 -1 10 4 10 6 0 11 -4 11
-10z m-160 -24 c0 -11 -19 -15 -25 -6 -3 5 1 10 9 10 9 0 16 -2 16 -4z m50 -6
c0 -5 -2 -10 -4 -10 -3 0 -8 5 -11 10 -3 6 -1 10 4 10 6 0 11 -4 11 -10z"/>
<path d="M1465 520 c-4 -6 -1 -9 6 -8 7 2 18 -8 26 -22 11 -22 13 -23 13 -4 0
32 -31 56 -45 34z"/>
</g>
</svg>
